GRF
version=1
nRows=37
nColumns=19
inDegrees=no
endheader
time	ground_force_vx	ground_force_vy	ground_force_vz	ground_force_px	ground_force_py	ground_force_pz	ground_torque_x	ground_torque_y	ground_torque_z	1_ground_force_vx	1_ground_force_vy	1_ground_force_vz	1_ground_force_px	1_ground_force_py	1_ground_force_pz	1_ground_torque_x	1_ground_torque_y	1_ground_torque_z
      0.00000000	    -39.14529102	    343.80597335	      3.89901599	      0.16685069	     -0.00000000	      0.02948189	     -0.00000000	     -0.42110046	      0.00000000	     41.79411396	    363.64439835	     -3.21242085	     -0.23160954	      0.00000000	      0.05990651	      0.00000000	      0.90087426	     -0.00000000
      0.00100000	    -39.18682576	    343.85259150	      3.90328043	      0.16683436	     -0.00000000	      0.02938952	     -0.00000000	     -0.41721877	      0.00000000	     41.75897735	    363.55035714	     -3.31705546	     -0.23160534	      0.00000000	      0.05989674	      0.00000000	      0.91412304	     -0.00000000
      0.00200000	    -39.22799529	    343.89905545	      3.90735276	      0.16681833	     -0.00000000	      0.02929833	     -0.00000000	     -0.41370615	      0.00000000	     41.72509145	    363.45841024	     -3.42060112	     -0.23160130	      0.00000000	      0.05988798	      0.00000000	      0.92732806	     -0.00000000
      0.00300000	    -39.26874535	    343.94534660	      3.91122798	      0.16680262	     -0.00000000	      0.02920845	     -0.00000000	     -0.41054940	      0.00000000	     41.69246128	    363.36866736	     -3.52304572	     -0.23159739	      0.00000000	      0.05988022	      0.00000000	      0.94049235	     -0.00000000
      0.00400000	    -39.30902307	    343.99144582	      3.91490050	      0.16678724	     -0.00000000	      0.02912001	     -0.00000000	     -0.40773485	      0.00000000	     41.66108865	    363.28123781	     -3.62437689	     -0.23159359	      0.00000000	      0.05987343	      0.00000000	      0.95361709	     -0.00000000
      0.00500000	    -39.34877709	    344.03733340	      3.91836409	      0.16677220	     -0.00000000	      0.02903312	     -0.00000000	     -0.40524842	      0.00000000	     41.63097218	    363.19623025	     -3.72458195	     -0.23158988	      0.00000000	      0.05986759	      0.00000000	      0.96670162	     -0.00000000
      0.00600000	    -39.38795766	    344.08298902	      3.92161191	      0.16675750	     -0.00000000	      0.02894791	     -0.00000000	     -0.40307568	      0.00000000	     41.60210728	    363.11375248	     -3.82364797	     -0.23158624	      0.00000000	      0.05986268	      0.00000000	      0.97974355	     -0.00000000
      0.00700000	    -39.42651678	    344.12839180	      3.92463656	      0.16674315	     -0.00000000	      0.02886447	     -0.00000000	     -0.40120188	      0.00000000	     41.57448615	    363.03391113	     -3.92156172	     -0.23158266	      0.00000000	      0.05985866	      0.00000000	      0.99273882	     -0.00000000
      0.00800000	    -39.46440825	    344.17352026	      3.92743009	      0.16672917	     -0.00000000	      0.02878293	     -0.00000000	     -0.39961200	      0.00000000	     41.54809782	    362.95681137	     -4.01830971	     -0.23157912	      0.00000000	      0.05985551	      0.00000000	      1.00568178	     -0.00000000
      0.00900000	    -39.50158783	    344.21835229	      3.92998407	      0.16671555	     -0.00000000	      0.02870337	     -0.00000000	     -0.39829080	      0.00000000	     41.52292814	    362.88255664	     -4.11387815	     -0.23157560	      0.00000000	      0.05985320	      0.00000000	      1.01856528	     -0.00000000
      0.01000000	    -39.53801326	    344.26286522	      3.93228958	      0.16670230	     -0.00000000	      0.02862589	     -0.00000000	     -0.39722287	      0.00000000	     41.49895989	    362.81124832	     -4.20825298	     -0.23157210	      0.00000000	      0.05985170	      0.00000000	      1.03138081	     -0.00000000
      0.01100000	    -39.57364440	    344.30703573	      3.93433733	      0.16668942	     -0.00000000	      0.02855059	     -0.00000000	     -0.39639270	      0.00000000	     41.47617278	    362.74298544	     -4.30141985	     -0.23156861	      0.00000000	      0.05985098	      0.00000000	      1.04411856	     -0.00000000
      0.01200000	    -39.60844327	    344.35083990	      3.93611769	      0.16667692	     -0.00000000	      0.02847753	     -0.00000000	     -0.39578468	      0.00000000	     41.45454358	    362.67786435	     -4.39336414	     -0.23156511	      0.00000000	      0.05985100	      0.00000000	      1.05676758	     -0.00000000
      0.01300000	    -39.64237412	    344.39425319	      3.93762077	      0.16666480	     -0.00000000	      0.02840680	     -0.00000000	     -0.39538322	      0.00000000	     41.43404619	    362.61597837	     -4.48407096	     -0.23156160	      0.00000000	      0.05985174	      0.00000000	      1.06931588	     -0.00000000
      0.01400000	    -39.67540348	    344.43725045	      3.93883647	      0.16665305	     -0.00000000	      0.02833846	     -0.00000000	     -0.39517272	      0.00000000	     41.41465172	    362.55741752	     -4.57352514	     -0.23155808	      0.00000000	      0.05985316	      0.00000000	      1.08175057	     -0.00000000
      0.01500000	    -39.70750022	    344.47980593	      3.93975460	      0.16664168	     -0.00000000	      0.02827256	     -0.00000000	     -0.39513770	      0.00000000	     41.39632867	    362.50226815	     -4.66171125	     -0.23155452	      0.00000000	      0.05985521	      0.00000000	      1.09405799	     -0.00000000
      0.01600000	    -39.73863557	    344.52189328	      3.94036494	      0.16663069	     -0.00000000	      0.02820917	     -0.00000000	     -0.39526277	      0.00000000	     41.37904301	    362.45061258	     -4.74861360	     -0.23155094	      0.00000000	      0.05985787	      0.00000000	      1.10622382	     -0.00000000
      0.01700000	    -39.76878311	    344.56348558	      3.94065735	      0.16662007	     -0.00000000	      0.02814833	     -0.00000000	     -0.39553273	      0.00000000	     41.36275836	    362.40252884	     -4.83421625	     -0.23154733	      0.00000000	      0.05986108	      0.00000000	      1.11823327	     -0.00000000
      0.01800000	    -39.79791887	    344.60455534	      3.94062183	      0.16660982	     -0.00000000	      0.02809007	     -0.00000000	     -0.39593257	      0.00000000	     41.34743614	    362.35809031	     -4.91850302	     -0.23154367	      0.00000000	      0.05986481	      0.00000000	      1.13007119	     -0.00000000
      0.01900000	    -39.82602123	    344.64507456	      3.94024864	      0.16659994	     -0.00000000	      0.02803441	     -0.00000000	     -0.39644753	      0.00000000	     41.33303574	    362.31736538	     -5.00145749	     -0.23153998	      0.00000000	      0.05986902	      0.00000000	      1.14172218	     -0.00000000
      0.02000000	    -39.85307099	    344.68501473	      3.93952839	      0.16659041	     -0.00000000	      0.02798139	     -0.00000000	     -0.39706313	      0.00000000	     41.31951471	    362.28041717	     -5.08306305	     -0.23153625	      0.00000000	      0.05987364	      0.00000000	      1.15317079	     -0.00000000
      0.02100000	    -39.87905129	    344.72434690	      3.93845213	      0.16658124	     -0.00000000	      0.02793101	     -0.00000000	     -0.39776519	      0.00000000	     41.30682896	    362.24730324	     -5.16330284	     -0.23153248	      0.00000000	      0.05987865	      0.00000000	      1.16440163	     -0.00000000
      0.02200000	    -39.90394763	    344.76304170	      3.93701146	      0.16657242	     -0.00000000	      0.02788328	     -0.00000000	     -0.39853986	      0.00000000	     41.29493297	    362.21807523	     -5.24215983	     -0.23152866	      0.00000000	      0.05988397	      0.00000000	      1.17539948	     -0.00000000
      0.02300000	    -39.92774780	    344.80106944	      3.93519858	      0.16656393	     -0.00000000	      0.02783819	     -0.00000000	     -0.39937366	      0.00000000	     41.28377996	    362.19277868	     -5.31961681	     -0.23152480	      0.00000000	      0.05988957	      0.00000000	      1.18614947	     -0.00000000
      0.02400000	    -39.95044184	    344.83840013	      3.93300643	      0.16655578	     -0.00000000	      0.02779573	     -0.00000000	     -0.40025346	      0.00000000	     41.27332216	    362.17145271	     -5.39565640	     -0.23152089	      0.00000000	      0.05989538	      0.00000000	      1.19663718	     -0.00000000
      0.02500000	    -39.97202198	    344.87500358	      3.93042877	      0.16654795	     -0.00000000	      0.02775588	     -0.00000000	     -0.40116652	      0.00000000	     41.26351104	    362.15412978	     -5.47026107	     -0.23151695	      0.00000000	      0.05990134	      0.00000000	      1.20684874	     -0.00000000
      0.02600000	    -39.99248258	    344.91084947	      3.92746020	      0.16654043	     -0.00000000	      0.02771861	     -0.00000000	     -0.40210051	      0.00000000	     41.25429747	    362.14083548	     -5.54341317	     -0.23151296	      0.00000000	      0.05990740	      0.00000000	      1.21677101	     -0.00000000
      0.02700000	    -40.01182004	    344.94590745	      3.92409631	      0.16653321	     -0.00000000	      0.02768389	     -0.00000000	     -0.40304348	      0.00000000	     41.24563203	    362.13158834	     -5.61509494	     -0.23150892	      0.00000000	      0.05991350	      0.00000000	      1.22639163	     -0.00000000
      0.02800000	    -40.03003275	    344.98014722	      3.92033369	      0.16652628	     -0.00000000	      0.02765168	     -0.00000000	     -0.40398389	      0.00000000	     41.23746522	    362.12639963	     -5.68528853	     -0.23150484	      0.00000000	      0.05991957	      0.00000000	      1.23569913	     -0.00000000
      0.02900000	    -40.04712096	    345.01353867	      3.91617002	      0.16651963	     -0.00000000	      0.02762193	     -0.00000000	     -0.40491060	      0.00000000	     41.22974766	    362.12527321	     -5.75397600	     -0.23150072	      0.00000000	      0.05992553	      0.00000000	      1.24468305	     -0.00000000
      0.03000000	    -40.06308675	    345.04605193	      3.91160411	      0.16651326	     -0.00000000	      0.02759458	     -0.00000000	     -0.40581288	      0.00000000	     41.22243039	    362.12820539	     -5.82113941	     -0.23149656	      0.00000000	      0.05993134	      0.00000000	      1.25333400	     -0.00000000
      0.03100000	    -40.07793388	    345.07765756	      3.90663591	      0.16650714	     -0.00000000	      0.02756957	     -0.00000000	     -0.40668038	      0.00000000	     41.21546502	    362.13518487	     -5.88676076	     -0.23149235	      0.00000000	      0.05993690	      0.00000000	      1.26164376	     -0.00000000
      0.03200000	    -40.09166771	    345.10832662	      3.90126660	      0.16650127	     -0.00000000	      0.02754683	     -0.00000000	     -0.40750315	      0.00000000	     41.20880404	    362.14619257	     -5.95082208	     -0.23148810	      0.00000000	      0.05994216	      0.00000000	      1.26960531	     -0.00000000
      0.03300000	    -40.10429514	    345.13803082	      3.89549855	      0.16649564	     -0.00000000	      0.02752629	     -0.00000000	     -0.40827158	      0.00000000	     41.20240096	    362.16120166	     -6.01330543	     -0.23148380	      0.00000000	      0.05994704	      0.00000000	      1.27721290	     -0.00000000
      0.03400000	    -40.11582444	    345.16674267	      3.88933535	      0.16649024	     -0.00000000	      0.02750787	     -0.00000000	     -0.40897645	      0.00000000	     41.19621059	    362.18017751	     -6.07419290	     -0.23147946	      0.00000000	      0.05995146	      0.00000000	      1.28446211	     -0.00000000
      0.03500000	    -40.12626521	    345.19443558	      3.88278182	      0.16648505	     -0.00000000	      0.02749150	     -0.00000000	     -0.40960889	      0.00000000	     41.19018920	    362.20307767	     -6.13346671	     -0.23147507	      0.00000000	      0.05995534	      0.00000000	      1.29134986	     -0.00000000
      0.03600000	    -40.13562826	    345.22108402	      3.87584397	      0.16648007	     -0.00000000	      0.02747707	     -0.00000000	     -0.41016036	      0.00000000	     41.18429476	    362.22985189	     -6.19110917	     -0.23147063	      0.00000000	      0.05995862	      0.00000000	      1.29787447	     -0.00000000
